<svg width="207" height="48" viewBox="0 0 207 48" fill="none" xmlns="http://www.w3.org/2000/svg">
<g clip-path="url(#clip0_412_11753)">
<g clip-path="url(#clip1_412_11753)">
<path d="M24.6895 26.0227L24.3848 34.3239C25.1723 34.2699 25.9787 34.3239 26.7877 34.5019C27.4215 34.6421 28.0175 34.8552 28.5785 35.1222C27.373 32.0773 26.1674 29.0514 24.9889 26.0254H24.6895V26.0227Z" fill="#0F2036"/>
<path d="M22.4829 26.0227L18.2676 36.9318C18.3997 37.0019 18.5265 37.0747 18.6451 37.161C19.821 35.8261 21.4014 34.8929 23.1463 34.5046C23.0681 31.6674 22.9899 28.8437 22.8847 26.0227H22.4829Z" fill="#0F2036"/>
<path d="M46.4754 24.2697C46.3944 17.2981 43.3388 11.0709 38.5572 6.87449C34.6331 3.53569 29.5548 1.51838 23.9991 1.51838C20.0994 1.51838 16.4342 2.51086 13.2384 4.25847C6.33152 8.20408 1.65234 15.8094 1.65234 24.5475C1.65234 26.0038 1.78989 27.4278 2.03801 28.8086C3.05745 33.4797 5.52244 37.6087 8.95024 40.6994C10.0398 39.5316 11.7011 38.9518 13.3732 39.3213C13.5917 39.3698 13.7993 39.4373 14.0016 39.5128C14.0016 39.3078 14.0232 39.1001 14.069 38.8898C14.398 37.4011 15.8058 36.4329 17.2892 36.6217C18.6322 32.6275 19.978 28.6603 21.3211 24.6958C21.3561 24.5879 21.4586 24.5178 21.5692 24.5178H23.0849V23.1127H22.8826C22.7828 23.1127 22.5832 22.9131 22.5832 22.7109V21.8074L21.5099 22.0987C21.3723 22.1364 21.2294 22.0555 21.1889 21.918L20.2315 18.6088C20.1911 18.4686 20.272 18.323 20.4122 18.2825L29.9135 15.6152C30.0564 15.5748 30.2021 15.6611 30.2398 15.804L31.1136 19.2076C31.1487 19.3451 31.0678 19.488 30.9302 19.5258L25.0887 21.1548C24.9754 21.1871 24.8972 21.2896 24.8972 21.4083V22.7136C24.8972 22.9131 24.7974 23.1154 24.5978 23.1154H24.4981V24.2562C24.4981 24.4019 24.6167 24.5205 24.7624 24.5205H26.0137C26.127 24.5205 26.2268 24.5933 26.2645 24.7012L29.9998 35.969C30.6902 36.4814 31.2889 37.0936 31.7879 37.7813C33.6649 38.3504 35.2103 39.7204 35.9978 41.5193C36.5345 41.2523 37.1332 41.0824 37.7724 41.0392C38.069 41.0203 38.3576 41.0311 38.6435 41.0662C43.3847 36.9965 46.4079 30.9905 46.4888 24.2724L46.4754 24.2697ZM11.7766 23.8948L8.78843 24.7983C8.64549 24.8415 8.49716 24.7579 8.4594 24.6149L7.99553 22.9158C7.95777 22.7783 8.03598 22.6354 8.17353 22.5949L11.1617 21.6914C11.3047 21.6483 11.453 21.7319 11.4908 21.8748L11.9546 23.5739C11.9924 23.7114 11.9142 23.8544 11.7766 23.8948ZM20.3151 21.686C20.3529 21.8263 20.272 21.9692 20.1317 22.007L13.1251 23.9892C12.9849 24.0297 12.8392 23.9461 12.7988 23.8058L12.0895 21.1979C12.0517 21.0577 12.1326 20.9147 12.2729 20.877L19.2795 18.8947C19.4197 18.8543 19.5654 18.9379 19.6058 19.0781L20.3151 21.686ZM35.0431 18.8354L32.4702 19.5366C32.3299 19.5743 32.1843 19.4907 32.1466 19.3505L31.0597 15.3509C31.0219 15.2107 31.1055 15.0651 31.2458 15.0273L33.8187 14.3261C33.9589 14.2884 34.1045 14.372 34.1423 14.5122L35.2292 18.5118C35.2669 18.652 35.1833 18.7976 35.0431 18.8354Z" fill="#0F2036"/>
<path d="M24 48C10.7662 48 0 37.2338 0 24C0 10.7662 10.7662 0 24 0C37.2338 0 48 10.7662 48 24C48 37.2338 37.2338 48 24 48ZM24 0.644567C11.1221 0.644567 0.644567 11.1221 0.644567 24C0.644567 36.8778 11.1221 47.3581 24.0027 47.3581C36.8832 47.3581 47.3608 36.8805 47.3608 24C47.3608 11.1195 36.8805 0.644567 24 0.644567Z" fill="#FEC627"/>
<path d="M56.8029 26.1151C56.4901 25.1793 56.2635 25.1604 55.832 25.0283V24.5024C56.1611 24.5212 61.0722 24.5024 61.0722 24.5024V25.066C60.5867 25.066 59.926 25.1038 59.8235 25.4975C59.7534 25.7591 59.9799 26.4711 60.1175 26.9215L62.3047 34.0252L64.6834 24.5024L65.1877 24.4646L67.9655 34.2491L69.8561 27.6686C70.0287 27.0698 70.2202 26.2068 70.0476 25.7187C69.8561 25.2117 69.2493 25.12 68.6425 25.0822V24.5024C69.3032 24.5212 72.3561 24.4835 72.3561 24.4835V25.0822C71.8167 25.0822 71.1938 25.983 71.0023 26.6383L67.5124 38.672H66.644L64.144 29.8612L61.8192 38.672H60.9508L56.8029 26.1124V26.1151Z" fill="#0F2036"/>
<path d="M72.1816 33.3887C72.1816 30.7646 73.1525 27.8412 75.8953 27.8573C78.6381 27.8762 79.4013 30.4814 79.1586 32.6012H74.8031V33.2755C74.8031 35.1121 74.9757 37.4746 76.6936 37.4746C77.7184 37.4746 78.3765 36.9109 78.7595 35.9185L79.1748 36.1989C78.7406 37.7551 78.0286 38.6909 76.3457 38.7664C72.8559 38.9363 72.1816 36.3662 72.1816 33.386V33.3887ZM75.6877 31.9054C76.6073 31.9054 76.6235 31.7733 76.7475 31.455C76.904 31.0424 76.9903 28.456 75.898 28.456C74.9622 28.456 74.8732 30.2927 74.8381 31.9054C75.1671 31.9432 75.6877 31.9054 75.6877 31.9054Z" fill="#0F2036"/>
<path d="M84.9203 38.8419C84.8151 38.7287 84.7477 38.4671 84.6938 38.2055C84.6587 38.0194 84.6425 37.7173 84.6425 37.7173L84.3809 37.9789C82.7142 39.6672 80.3895 38.9903 80.0928 36.9109C79.6937 34.098 82.3502 32.1508 84.7261 31.8488L84.7423 30.0122C84.7423 29.2058 84.4295 28.4938 83.4748 28.4749C82.5551 28.456 81.9995 28.6637 81.9834 29.2436C81.9672 29.6373 82.6252 29.3757 82.7655 30.3115C82.8868 31.1179 82.245 31.6978 81.5168 31.7355C80.8048 31.7733 80.3032 31.0802 80.3032 30.3304C80.3032 28.6071 82.2638 27.7441 83.9306 27.7629C85.8049 27.7818 87.21 28.2322 87.175 30.0311C87.175 30.0311 87.0374 36.9676 87.0698 37.1348C87.0698 37.1348 87.086 37.4153 87.175 37.5663L87.887 37.7551V38.1488L85.2305 38.8797C85.0929 38.9174 85.0228 38.9552 84.9176 38.8419H84.9203ZM84.71 32.5068C81.8108 32.844 82.5228 35.6757 82.6981 36.2745C82.992 37.3236 83.7903 37.6229 84.6587 37.1564L84.71 32.5068Z" fill="#0F2036"/>
<path d="M88.5645 38.0733L89.4329 37.9223V25.3627L88.5645 25.0633V24.6696L91.4637 23.9764C91.6012 23.9387 91.7253 23.882 91.8277 23.9953C91.9329 24.1086 91.8979 24.2192 91.8979 24.3702V37.9412L92.591 38.0733V38.5615H88.5645V38.0733Z" fill="#0F2036"/>
<path d="M94.2222 35.8618V29.2624H93.459V28.7743L95.8188 25.8131H96.4795V28.4372H98.5616L98.424 29.3379H96.4795V35.1876C96.4795 36.2178 96.5308 37.3802 97.4855 37.5879C97.9898 37.7011 98.3189 37.569 98.5616 37.2885L98.7692 37.8144C97.9359 38.6208 97.5556 38.939 96.2341 38.939C94.4299 38.939 94.2195 37.3263 94.2195 35.8645L94.2222 35.8618Z" fill="#0F2036"/>
<path d="M98.9099 38.0733L99.6731 37.9223V25.3627L98.8047 25.0633V24.6696L101.669 23.9198C101.806 23.882 101.93 23.8254 102.033 23.9387C102.138 24.052 102.103 24.1625 102.103 24.3136V29.0008L102.259 28.8876C103.214 28.1944 103.996 27.914 105.072 27.914C106.043 27.914 106.79 28.6637 106.79 29.6562V37.9412L107.537 38.0733V38.5615H103.632V38.0733L104.36 37.9223V30.3304C104.36 29.8234 104.031 29.4485 103.562 29.3191C103.198 29.2058 102.677 29.3002 102.103 29.6562V37.9412L102.796 38.0733V38.5615H98.9072V38.0733H98.9099Z" fill="#0F2036"/>
<path d="M113.905 26.0018L114.01 35.8996C114.026 37.8306 115.38 37.9439 116.006 37.9816V38.5615H111.389C111.389 38.5615 111.405 38.2432 111.389 37.9439C112.465 37.8306 113.037 37.2885 113.072 35.9751L113.314 27.2775C113.33 26.641 113.244 26.1529 112.915 25.6836C112.602 25.2332 111.995 25.0282 111.596 25.066V24.5023H116.386L119.388 33.351L122.303 24.5023H126.745V25.066L125.321 25.3276V37.7362L126.64 37.9978V38.5615H121.017V37.9978L122.476 37.7362V26.1502L118.519 38.5965H118.155L113.902 25.9991L113.905 26.0018Z" fill="#0F2036"/>
<path d="M132.614 38.8419C132.509 38.7287 132.441 38.4671 132.387 38.2055C132.352 38.0194 132.336 37.7173 132.336 37.7173L132.074 37.9789C130.408 39.6672 128.083 38.9903 127.786 36.9109C127.387 34.098 130.044 32.1508 132.42 31.8488L132.436 30.0122C132.436 29.2058 132.123 28.4938 131.168 28.4749C130.248 28.456 129.693 28.6637 129.677 29.2436C129.661 29.6373 130.319 29.3757 130.459 30.3115C130.58 31.1179 129.938 31.6978 129.21 31.7355C128.498 31.7733 127.997 31.0802 127.997 30.3304C127.997 28.6071 129.957 27.7441 131.624 27.7629C133.498 27.7818 134.903 28.2322 134.868 30.0311C134.868 30.0311 134.731 36.9676 134.763 37.1348C134.763 37.1348 134.779 37.4153 134.868 37.5663L135.58 37.7551V38.1488L132.924 38.8797C132.786 38.9174 132.716 38.9552 132.611 38.8419H132.614ZM132.406 32.5068C129.507 32.844 130.219 35.6757 130.391 36.2745C130.685 37.3236 131.484 37.6229 132.352 37.1564L132.403 32.5068H132.406Z" fill="#0F2036"/>
<path d="M136.244 38.0733L137.026 37.9223L137.042 29.6562L136.349 29.3568V28.9631L139.022 27.8762C139.16 27.8196 139.281 27.7818 139.386 27.8951C139.491 28.0084 139.456 28.1189 139.456 28.27V29.0197L139.561 28.9442C140.567 28.2133 141.436 27.914 142.512 27.914C143.483 27.914 144.143 28.7015 144.143 29.6562V37.9412L144.926 38.0733V38.5615H140.985V38.0733L141.714 37.9223V30.3304C141.714 29.8234 141.384 29.4485 140.915 29.3191C140.551 29.2058 140.031 29.3002 139.456 29.6562V37.9412L140.149 38.0733V38.5615H136.244V38.0733Z" fill="#0F2036"/>
<path d="M150.562 38.8419C150.457 38.7287 150.39 38.4671 150.336 38.2055C150.301 38.0194 150.284 37.7173 150.284 37.7173L150.025 37.9789C148.359 39.6672 146.034 38.9903 145.737 36.9109C145.338 34.098 147.995 32.1508 150.371 31.8488L150.387 30.0122C150.387 29.2058 150.074 28.4938 149.119 28.4749C148.2 28.456 147.644 28.6637 147.628 29.2436C147.612 29.6373 148.27 29.3757 148.41 30.3115C148.531 31.1179 147.889 31.6978 147.161 31.7355C146.449 31.7733 145.948 31.0802 145.948 30.3304C145.948 28.6071 147.908 27.7441 149.575 27.7629C151.449 27.7818 152.855 28.2322 152.82 30.0311C152.82 30.0311 152.682 36.9676 152.714 37.1348C152.714 37.1348 152.731 37.4153 152.82 37.5663L153.531 37.7551V38.1488L150.875 38.8797C150.737 38.9174 150.667 38.9552 150.562 38.8419ZM150.355 32.5068C147.455 32.844 148.167 35.6757 148.34 36.2745C148.634 37.3236 149.432 37.6229 150.301 37.1564L150.352 32.5068H150.355Z" fill="#0F2036"/>
<path d="M154.104 39.9099C154.088 38.9175 154.816 38.5048 155.927 38.2972C155.023 38.1273 154.487 37.5852 154.487 36.6655C154.487 35.9158 155.077 35.166 156.501 34.5484C155.355 34.0225 154.557 33.3483 154.557 31.3984C154.557 29.4485 155.841 28.0057 158.028 28.0057C158.689 28.0057 159.417 28.1001 159.902 28.4938C160.266 27.8573 160.806 27.1804 161.604 27.1804C162.211 27.1804 162.61 27.3665 162.888 28.0623C163.079 28.5504 162.993 29.2624 162.489 29.4863C162.073 29.6724 161.62 29.5618 161.412 29.1303C161.256 28.7932 161.518 28.3805 161.307 28.2484C161.1 28.1162 160.736 28.1351 160.266 28.7932C160.959 29.4108 161.307 30.4059 161.307 31.4173C161.291 33.5533 160.215 34.7534 158.009 34.81C157.715 34.81 157.316 34.8478 157.073 34.7723C156.623 35.0905 156.534 35.2793 156.569 35.7108C156.604 36.1989 157.194 36.1612 157.766 36.1612H159.953C161.342 36.1612 162.278 36.9298 162.246 38.7287C162.211 40.8646 160.042 41.4849 158.114 41.5038C156.361 41.5227 154.123 41.3177 154.104 39.9099ZM160.49 39.6672C160.455 38.8231 159.829 38.5992 158.511 38.5992H157.451C156.027 38.6181 155.611 38.8042 155.663 39.8371C155.698 40.5302 156.477 40.8673 157.987 40.8673C159.498 40.8673 160.522 40.5869 160.487 39.6672H160.49ZM158.91 31.2501C158.753 30.0688 158.718 28.4372 157.47 28.5693C156.776 28.6448 156.793 30.3493 156.933 31.6061C157.07 32.8817 157.211 34.3246 158.459 34.2113C159.12 34.1547 159.066 32.4313 158.91 31.2501Z" fill="#0F2036"/>
<path d="M163.025 33.3887C163.025 30.7646 163.996 27.8412 166.739 27.8573C169.482 27.8762 170.245 30.4814 170.002 32.6012H165.647V33.2755C165.647 35.1121 165.819 37.4746 167.537 37.4746C168.562 37.4746 169.22 36.9109 169.603 35.9185L170.019 36.1989C169.584 37.7551 168.872 38.6909 167.189 38.7664C163.7 38.9363 163.025 36.3662 163.025 33.386V33.3887ZM166.531 31.9054C167.451 31.9054 167.47 31.7733 167.591 31.455C167.748 31.0424 167.834 28.456 166.742 28.456C165.806 28.456 165.717 30.2927 165.682 31.9054C166.011 31.9432 166.531 31.9054 166.531 31.9054Z" fill="#0F2036"/>
<path d="M170.66 38.0733L171.423 37.9223V29.6751L170.66 29.3757V28.9819L173.419 27.8762C173.556 27.8196 173.678 27.7818 173.783 27.8951C173.888 28.0084 173.853 28.1189 173.853 28.27V29.0386L173.958 28.9631C174.929 28.27 175.695 27.914 176.771 27.914C177.534 27.914 178.23 28.3643 178.384 29.0575L178.505 28.9631C179.476 28.2133 180.344 27.914 181.42 27.914C182.391 27.914 183.052 28.7015 183.052 29.6562V37.9412L183.78 38.0733V38.5615H179.91V38.0733L180.638 37.9223V30.3682C180.638 29.8989 180.482 29.4863 180.013 29.3568C179.665 29.2435 179.042 29.3191 178.486 29.6373V37.9034L179.147 38.0733V38.5615H175.328V38.0733L176.056 37.9223V30.3304C176.056 29.8611 175.9 29.4485 175.431 29.3191C175.066 29.2058 174.425 29.3002 173.85 29.6562V37.9412L174.543 38.0733V38.5615H170.654V38.0733H170.66Z" fill="#0F2036"/>
<path d="M184.582 33.3887C184.582 30.7646 185.553 27.8412 188.296 27.8573C191.038 27.8762 191.802 30.4814 191.559 32.6012H187.203V33.2755C187.203 35.1121 187.376 37.4746 189.094 37.4746C190.119 37.4746 190.777 36.9109 191.16 35.9185L191.575 36.1989C191.141 37.7551 190.429 38.6909 188.746 38.7664C185.259 38.9363 184.582 36.3662 184.582 33.386V33.3887ZM188.088 31.9054C189.008 31.9054 189.024 31.7733 189.148 31.455C189.304 31.0424 189.391 28.456 188.298 28.456C187.36 28.456 187.274 30.2927 187.239 31.9054C187.568 31.9432 188.088 31.9054 188.088 31.9054Z" fill="#0F2036"/>
<path d="M192.199 38.0733L192.981 37.9223L192.998 29.6562L192.304 29.3568V28.9631L194.977 27.8762C195.115 27.8196 195.236 27.7818 195.341 27.8951C195.446 28.0084 195.411 28.1189 195.411 28.27V29.0197L195.516 28.9442C196.522 28.2133 197.391 27.914 198.467 27.914C199.438 27.914 200.099 28.7015 200.099 29.6562V37.9412L200.881 38.0733V38.5615H196.94V38.0733L197.669 37.9223V30.3304C197.669 29.8234 197.34 29.4485 196.87 29.3191C196.506 29.2058 195.986 29.3002 195.411 29.6562V37.9412L196.104 38.0733V38.5615H192.199V38.0733Z" fill="#0F2036"/>
<path d="M202.285 35.8618V29.2624H201.521V28.7743L203.881 25.8131H204.542V28.4372H206.624L206.487 29.3379H204.542V35.1876C204.542 36.2178 204.593 37.3802 205.548 37.5879C206.052 37.7011 206.381 37.569 206.624 37.2885L206.832 37.8144C205.998 38.6208 205.618 38.939 204.297 38.939C202.492 38.939 202.285 37.3263 202.285 35.8645V35.8618Z" fill="#0F2036"/>
<path d="M56.6328 16.5234H58.5072V12.4592H62.7629V10.7601H58.5072V7.90945H63.1756V6.21038H56.6328V16.5234Z" fill="#0F2036"/>
<path d="M72.3888 6.21038H70.5117V16.5261H72.3888V6.21038Z" fill="#0F2036"/>
<path d="M86.7334 12.567L80.5278 6.06205H80.1934V16.5234H81.9679V10.1668L88.1736 16.6718H88.5053V6.21038H86.7334V12.567Z" fill="#0F2036"/>
<path d="M100.876 12.5778H103.556V14.3632C102.955 14.7435 102.208 14.9296 101.277 14.9296C99.1387 14.9296 97.7013 13.4975 97.7013 11.3696C97.7013 9.24173 99.0929 7.80966 101.013 7.80966C102.345 7.80966 103.012 8.24656 103.656 8.95316L103.759 9.06643L105.067 7.82854L104.97 7.72066C103.974 6.60143 102.731 6.08092 101.059 6.08092C98.0438 6.08092 95.7676 8.35444 95.7676 11.3723C95.7676 14.3902 98.1355 16.661 101.277 16.661C102.882 16.661 104.147 16.2349 105.261 15.3152L105.315 15.2694V10.8815H100.876V12.5805V12.5778Z" fill="#0F2036"/>
<path d="M114.654 12.1517H118.912V10.4796H114.654V7.90945H119.457V6.21038H112.779V16.5234H119.662V14.8244H114.654V12.1517Z" fill="#0F2036"/>
<path d="M134.277 9.54109C134.277 7.48603 132.81 6.21038 130.444 6.21038H127.084V16.5261H128.961V12.8313H130.552L132.791 16.5261H134.865L132.402 12.4727C133.613 11.9656 134.277 10.93 134.277 9.54109ZM132.34 9.54109C132.34 10.6846 131.755 11.1727 130.385 11.1727H128.958V7.90945H130.385C131.755 7.90945 132.34 8.39759 132.34 9.54109Z" fill="#0F2036"/>
<path d="M143.649 6.21038H141.771V16.5234H148.066V14.8244H143.649V6.21038Z" fill="#0F2036"/>
<path d="M159.186 6.00271H158.9L154.383 16.5234H156.3L157.08 14.6545H160.944L161.724 16.5234H163.717L159.224 6.09171L159.183 6.00002L159.186 6.00271ZM160.246 12.9689H157.781L159.027 10.005L160.246 12.9689Z" fill="#0F2036"/>
<path d="M178.377 6.21038H176.22L172.495 10.7817V6.21038H170.621V16.5234H172.495V13.2332L173.456 12.0978L176.568 16.5234H178.852L174.699 10.6684L178.377 6.21038Z" fill="#0F2036"/>
<path d="M187.449 12.1517H191.705V10.4796H187.449V7.90945H192.25V6.21038H185.572V16.5234H192.455V14.8244H187.449V12.1517Z" fill="#0F2036"/>
<path d="M203.64 10.5066L202.947 10.1991C201.858 9.71368 201.445 9.46557 201.445 8.77515C201.445 8.14946 201.912 7.76111 202.664 7.76111C203.417 7.76111 203.897 8.04698 204.258 8.65918L204.339 8.79403L205.785 7.84741L205.712 7.72335C205.04 6.59873 204.064 6.07283 202.637 6.07283C200.857 6.07283 199.617 7.20554 199.617 8.82909C199.617 10.4526 200.647 11.2294 202.195 11.9117L202.885 12.2218C203.829 12.6479 204.401 12.9635 204.401 13.778C204.401 14.4926 203.781 14.9376 202.783 14.9376C201.785 14.9376 201.086 14.498 200.65 13.6647L200.582 13.5352L198.988 14.3335L199.061 14.4684C199.805 15.8789 201.135 16.6529 202.802 16.6529C204.938 16.6529 206.265 15.5337 206.265 13.7348C206.265 11.936 205.261 11.2267 203.643 10.5039L203.64 10.5066Z" fill="#0F2036"/>
</g>
</g>
<defs>
<clipPath id="clip0_412_11753">
<rect width="206.83" height="48" fill="white"/>
</clipPath>
<clipPath id="clip1_412_11753">
<rect width="206.83" height="48" fill="white"/>
</clipPath>
</defs>
</svg>
